<svg fill="none" height="19" viewBox="0 0 13 19" width="13" xmlns="http://www.w3.org/2000/svg">
    <path clip-rule="evenodd" d="M4.49388 0H12.7301C12.8792 0 13 0.124613 13 0.27832V7.70209C13 7.85579 12.8792 7.98041 12.7301 7.98041H11.5001V8.35829C11.5001 8.512 11.3792 8.63661 11.2302 8.63661H9.59902V9.55997C10.1123 9.67152 10.4987 10.1421 10.4987 10.7041V11.3166H11.3867C12.0119 11.3166 12.5205 11.841 12.5205 12.4857C12.5205 12.7753 12.4179 13.0406 12.2482 13.2451C12.5963 13.4449 12.8323 13.8283 12.8323 14.2674C12.8323 14.6884 12.6155 15.0582 12.2909 15.2641C12.4736 15.4717 12.5852 15.7473 12.5852 16.0491C12.5852 16.6595 12.1294 17.1621 11.5503 17.2139C11.6587 17.3931 11.7213 17.6045 11.7213 17.8308C11.7213 18.4755 11.2127 19 10.5875 19H7.07351C5.96798 19 4.89991 18.5889 4.06604 17.8423C3.82436 17.6259 3.50757 17.5066 3.17402 17.5066H2.74179V17.7183C2.74179 17.872 2.62094 17.9966 2.47189 17.9966H0.269896C0.120842 17.9966 0 17.872 0 17.7183V12.7756C0 12.6219 0.120842 12.4973 0.269896 12.4973C0.418951 12.4973 0.539792 12.6219 0.539792 12.7756V17.44H2.20199V11.0949H0.539792V11.4768C0.539792 11.6305 0.418951 11.7551 0.269896 11.7551C0.120842 11.7551 0 11.6305 0 11.4768V10.8166C0 10.6629 0.120842 10.5383 0.269896 10.5383H2.47189C2.62094 10.5383 2.74179 10.6629 2.74179 10.8166V11.0282H3.17394C3.50753 11.0282 3.82436 10.909 4.06604 10.6926C4.89988 9.94602 5.96794 9.53488 7.07348 9.53488H7.62493V8.63665H5.99378C5.84473 8.63665 5.72389 8.51204 5.72389 8.35833V7.98045H4.49384C4.34479 7.98045 4.22395 7.85583 4.22395 7.70213V3.20903C4.22395 3.05533 4.34479 2.93071 4.49384 2.93071C4.6429 2.93071 4.76374 3.05533 4.76374 3.20903V7.4238H5.72389V6.90646C5.72389 6.75276 5.84473 6.62814 5.99378 6.62814H9.20961C9.35867 6.62814 9.47951 6.75276 9.47951 6.90646C9.47951 7.06017 9.35867 7.18478 9.20961 7.18478H6.26368V8.08001H10.9602V7.18478H10.4691C10.3201 7.18478 10.1992 7.06017 10.1992 6.90646C10.1992 6.75276 10.3201 6.62814 10.4691 6.62814H11.2301C11.3792 6.62814 11.5 6.75276 11.5 6.90646V7.4238H12.4602V0.556641H4.76378V1.91021C4.76378 2.06391 4.64293 2.18853 4.49388 2.18853C4.34483 2.18853 4.22398 2.06391 4.22398 1.91021V0.27832C4.22398 0.124613 4.34483 0 4.49388 0ZM11.9807 12.4857C11.9807 12.148 11.7143 11.8732 11.3867 11.8732C11.3904 11.8734 7.93002 11.8749 7.03753 11.8732C6.88847 11.873 6.76763 11.7486 6.76763 11.5949C6.76763 11.4412 6.88847 11.3166 7.03753 11.3166H7.62493V10.0915H7.07348C6.09796 10.0915 5.15559 10.4542 4.41993 11.1129C4.08004 11.4172 3.63759 11.5849 3.17402 11.5849H2.74179V16.95H3.17409C3.63762 16.95 4.08011 17.1177 4.41996 17.422C5.15563 18.0806 6.098 18.4434 7.07351 18.4434H10.5875C10.9151 18.4434 11.1815 18.1686 11.1815 17.8308C11.1815 17.4931 10.9151 17.2183 10.5875 17.2183H9.63105C9.48199 17.2183 9.36115 17.0937 9.36115 16.94C9.36115 16.7863 9.48199 16.6617 9.63105 16.6617H11.4514C11.7789 16.6617 12.0454 16.3869 12.0454 16.0491C12.0454 15.7114 11.7789 15.4366 11.4514 15.4366H9.63105C9.48199 15.4366 9.36115 15.312 9.36115 15.1583C9.36115 15.0046 9.48199 14.88 9.63105 14.88H11.6985C12.0261 14.88 12.2925 14.6052 12.2925 14.2674C12.2925 13.9297 12.0261 13.6549 11.6985 13.6549H9.63105C9.48199 13.6549 9.36115 13.5303 9.36115 13.3766C9.36115 13.2229 9.48199 13.0983 9.63105 13.0983H11.3867C11.7143 13.0983 11.9807 12.8235 11.9807 12.4857ZM9.95888 10.7041V11.3166H9.59902V10.1411C9.81047 10.235 9.95888 10.452 9.95888 10.7041ZM8.16476 11.3166H9.05923V8.63665H8.16476V11.3166Z"
        fill="black"
        fill-rule="evenodd" />
    <path clip-rule="evenodd" d="M9.77298 3.70577L8.24523 5.67257C7.9061 6.10916 7.35438 6.10912 7.01521 5.67261L6.22702 4.65786C5.92433 4.26813 5.92433 3.63406 6.22702 3.24437C6.53044 2.85372 7.02159 2.8538 7.32497 3.24437L7.63022 3.63735L8.67503 2.29228C8.97772 1.90259 9.47028 1.90255 9.77298 2.29228C10.0757 2.68201 10.0757 3.31608 9.77298 3.70577ZM6.97806 3.69095C6.86637 3.54716 6.68557 3.5472 6.57394 3.69095C6.46221 3.83474 6.46228 4.0675 6.57394 4.2112L7.36213 5.22595C7.50996 5.41627 7.75048 5.41627 7.89835 5.22595L9.42609 3.25915C9.53779 3.11536 9.53775 2.8826 9.42609 2.73885C9.31466 2.59544 9.13337 2.59544 9.02194 2.73885L7.80801 4.30165C7.70999 4.42784 7.55048 4.42788 7.45243 4.30165L6.97806 3.69095Z"
        fill="black"
        fill-rule="evenodd" />
</svg>
