<svg fill="none" height="16" viewBox="0 0 24 16" width="24" xmlns="http://www.w3.org/2000/svg">
    <path clip-rule="evenodd" d="M2.49999 0H21.5001C22.878 0 24 1.122 24 2.50003V13.5C24 14.878 22.878 16 21.5 16H2.49999C1.122 16 0 14.878 0 13.5V2.50003C0 1.122 1.122 0 2.49999 0ZM21.5001 15C22.3271 15 23.0001 14.327 23.0001 13.5H23V2.50003C23 1.67301 22.327 1.00003 21.5 1.00003H2.49999C1.67297 1.00003 0.999986 1.67301 0.999986 2.50003V13.5C0.999986 14.327 1.67297 15 2.49999 15H21.5001Z"
        fill="#C5C5C5"
        fill-rule="evenodd" />
    <path
        d="M21.9124 2.21749C21.7574 1.99004 21.4464 1.93318 21.2174 2.08782L13.0162 7.68525C12.3982 8.10624 11.6001 8.10624 10.9831 7.68525L2.78183 2.08777C2.55284 1.93117 2.24181 1.99 2.08679 2.21744C1.93177 2.44489 1.98981 2.75516 2.21781 2.91078L10.4191 8.50821C10.8991 8.83643 11.4501 9 12.0001 9C12.5501 9 13.1012 8.83638 13.5812 8.50821L21.7825 2.91078C22.0105 2.75516 22.0684 2.44494 21.9124 2.21749Z"
        fill="#C5C5C5" />
</svg>
