<svg fill="none" height="12" viewBox="0 0 12 12" width="12" xmlns="http://www.w3.org/2000/svg">
    <path
        d="M11.8724 4.41172L6.1842 0.0628842C6.07451 -0.0209614 5.9255 -0.0209614 5.81585 0.0628842L0.127631 4.41172C-0.0113067 4.51796 -0.0414942 4.72167 0.0602478 4.86675C0.16199 5.01183 0.357107 5.0433 0.49602 4.93711L6 0.729072L11.504 4.93709C11.5595 4.97955 11.624 4.99998 11.6879 4.99998C11.7839 4.99998 11.8787 4.95385 11.9397 4.86673C12.0415 4.72167 12.0113 4.51796 11.8724 4.41172Z"
        fill="black" />
    <path
        d="M10.6666 5C10.4826 5 10.3333 5.16567 10.3333 5.37003V11.2599H7.66676V8.04483C7.66676 7.02456 6.91902 6.19456 6 6.19456C5.08098 6.19456 4.33324 7.02462 4.33324 8.04483V11.2599H1.66665V5.37005C1.66665 5.1657 1.51739 5.00003 1.33333 5.00003C1.14926 5.00003 1 5.1657 1 5.37005V11.63C1 11.8343 1.14926 12 1.33333 12H4.66657C4.84186 12 4.98531 11.8497 4.99859 11.6588C4.99939 11.6501 4.99989 11.6407 4.99989 11.63V8.04486C4.99989 7.43267 5.44853 6.93464 6 6.93464C6.55147 6.93464 7.00011 7.4327 7.00011 8.04486V11.63C7.00011 11.6406 7.00061 11.6499 7.00141 11.6585C7.01454 11.8495 7.15804 12 7.33343 12H10.6667C10.8508 12 11 11.8343 11 11.63V5.37005C11 5.16567 10.8507 5 10.6666 5Z"
        fill="black" />
</svg>
