<svg fill="none" height="11" viewBox="0 0 15 11" width="15" xmlns="http://www.w3.org/2000/svg">
    <path clip-rule="evenodd" d="M0.340909 0H14.6591C14.8474 0 15 0.153902 15 0.34375V10.6562C15 10.8461 14.8474 11 14.6591 11H0.340909C0.15263 11 0 10.8461 0 10.6562V0.34375C0 0.153902 0.15263 0 0.340909 0ZM0.681818 9.30746V10.3086H10.2494L5.11364 3.00437L0.681818 9.30746ZM11.0881 10.3125L9.93409 8.67152L11.5841 6.42984L14.3041 10.3125H11.0881ZM11.8692 5.64523L14.3182 9.14074V0.6875H0.681818V8.11852L4.83537 2.21117C4.89941 2.12034 5.00311 2.06638 5.11364 2.06638C5.22417 2.06638 5.32786 2.12034 5.3919 2.21117L9.51946 8.08156L11.3173 5.63879C11.382 5.54991 11.4854 5.49817 11.5947 5.5C11.704 5.50126 11.8061 5.55527 11.8692 5.64523Z"
        fill="black"
        fill-rule="evenodd" />
    <path clip-rule="evenodd" d="M13 3.5C13 4.32843 12.3284 5 11.5 5C10.672 4.99907 10.0009 4.32804 10 3.5C10 2.67157 10.6716 2 11.5 2C12.3284 2 13 2.67157 13 3.5ZM12.25 3.5C12.25 3.08579 11.9142 2.75 11.5 2.75C11.086 2.75049 10.7505 3.08599 10.75 3.5C10.75 3.91421 11.0858 4.25 11.5 4.25C11.9142 4.25 12.25 3.91421 12.25 3.5Z"
        fill="black"
        fill-rule="evenodd" />
</svg>
