<svg fill="none" height="13" viewBox="0 0 17 13" width="17" xmlns="http://www.w3.org/2000/svg">
    <path clip-rule="evenodd" d="M0.772727 1.625C0.345962 1.625 0 1.26123 0 0.8125C0 0.363769 0.345962 0 0.772727 0H16.2273C16.654 0 17 0.363769 17 0.8125C17 1.26123 16.654 1.625 16.2273 1.625H0.772727ZM0.772727 7.3125C0.345962 7.3125 0 6.94873 0 6.5C0 6.05127 0.345962 5.6875 0.772727 5.6875H8.5C8.92677 5.6875 9.27273 6.05127 9.27273 6.5C9.27273 6.94873 8.92677 7.3125 8.5 7.3125H0.772727ZM0 12.1875C0 12.6362 0.345962 13 0.772727 13H16.2273C16.654 13 17 12.6362 17 12.1875C17 11.7388 16.654 11.375 16.2273 11.375H0.772727C0.345962 11.375 0 11.7388 0 12.1875Z"
        fill="black"
        fill-rule="evenodd" />
</svg>
