<svg fill="none" height="14" viewBox="0 0 14 14" width="14" xmlns="http://www.w3.org/2000/svg">
    <path clip-rule="evenodd" d="M13.5692 0.0177138C13.6769 -7.70422e-06 13.7846 0.0177138 13.8744 0.0885999C13.9462 0.141764 14 0.248094 14 0.354423V9.3924C14 10.8633 12.7974 12.0506 11.3077 12.0506C9.81795 12.0506 8.61539 10.8633 8.61539 9.3924C8.61539 7.92151 9.81795 6.73417 11.3077 6.73417C12.0795 6.73417 12.7974 7.05316 13.2821 7.5848V3.26075L5.38462 4.89113V11.1823C5.38462 12.6532 4.18205 13.8405 2.69231 13.8405C1.20256 13.8405 0 12.6532 0 11.1823C0 9.71139 1.20256 8.52404 2.69231 8.52404C3.48205 8.52404 4.18205 8.84303 4.66667 9.37468V2.1443C4.66667 1.96708 4.79231 1.82531 4.95385 1.78987L13.5692 0.0177138ZM0.717945 11.1645C0.717945 12.2456 1.59743 13.1139 2.6923 13.1139C3.78718 13.1139 4.66666 12.2456 4.66666 11.1645C4.66666 10.0835 3.78718 9.21518 2.6923 9.21518C1.59743 9.21518 0.717945 10.0835 0.717945 11.1645ZM11.3077 11.3418C10.2128 11.3418 9.33333 10.4734 9.33333 9.3924C9.33333 8.31139 10.2128 7.44303 11.3077 7.44303C12.4026 7.44303 13.2821 8.31139 13.2821 9.3924C13.2821 10.4734 12.4026 11.3418 11.3077 11.3418ZM5.38461 4.18227L13.282 2.55189V0.797461L5.38461 2.42784V4.18227Z"
        fill="black"
        fill-rule="evenodd" />
</svg>
