<svg fill="none" height="20" viewBox="0 0 16 20" width="16" xmlns="http://www.w3.org/2000/svg">
    <path clip-rule="evenodd" d="M1.03792 16.026L0.209636 16.3572C0.0830078 16.4078 0 16.5305 0 16.6669V18.0003C0 18.1844 0.149251 18.3336 0.333333 18.3336H6.02995C6.19173 19.2956 7.02458 20 8 20C8.97542 20 9.80827 19.2956 9.97005 18.3336H15.6667C15.8507 18.3336 16 18.1844 16 18.0003V16.6669C16 16.5305 15.917 16.4078 15.7904 16.3572L14.9621 16.026C14.5814 15.8753 14.3319 15.5069 14.3333 15.0976V8.33347C14.346 5.47535 12.4284 2.9688 9.66667 2.23343V1.66669C9.66667 0.746269 8.92041 0 8 0C7.07959 0 6.33333 0.746269 6.33333 1.66669V2.22937C3.57601 2.97401 1.66211 5.4773 1.66667 8.33347V15.0976C1.66813 15.5069 1.41862 15.8753 1.03792 16.026ZM8 0.666678C8.55225 0.666678 9 1.11444 9 1.66669L9.00065 2.07962C8.98615 2.07729 8.9713 2.07581 8.95646 2.07433L8.95645 2.07433L8.95645 2.07433C8.94232 2.07292 8.9282 2.07151 8.91439 2.06937C8.81006 2.05407 8.70492 2.04105 8.59863 2.03096L8.55893 2.02742C8.51661 2.02361 8.47438 2.01981 8.43197 2.01696C8.31868 2.00931 8.20133 2.00508 8.08529 2.00329C8.07201 2.00314 8.0593 2.00243 8.04643 2.00171C8.03153 2.00088 8.01642 2.00003 8 2.00003C7.98343 2.00003 7.9671 2.00099 7.9508 2.00194L7.95079 2.00194C7.937 2.00275 7.92322 2.00355 7.90934 2.00378C7.79671 2.0054 7.68441 2.00931 7.57227 2.01696C7.51335 2.0207 7.4554 2.02607 7.39697 2.03177C7.29704 2.04137 7.19694 2.05374 7.097 2.06807C7.0823 2.07028 7.06649 2.07192 7.05048 2.07358L7.05047 2.07358L7.05045 2.07358C7.0335 2.07533 7.01632 2.07711 7 2.07962V1.66669C7 1.11444 7.44775 0.666678 8 0.666678ZM8 19.3336C8.60775 19.333 9.13835 18.9219 9.29102 18.3336H6.70898C6.86165 18.9219 7.39225 19.333 8 19.3336ZM15.3333 17.667H0.666666V16.8925L1.28532 16.6453C1.91976 16.394 2.33545 15.7799 2.33333 15.0976V8.33347C2.33024 5.68922 4.16032 3.39589 6.73926 2.81206C6.94401 2.76323 7.15153 2.72693 7.36068 2.70333C8.96387 2.52397 10.5677 3.03553 11.7712 4.10993C12.9746 5.18433 13.6639 6.72016 13.6667 8.33347V15.0976C13.6646 15.7799 14.0802 16.394 14.7147 16.6453L15.3333 16.8925V17.667Z"
        fill="black"
        fill-rule="evenodd" />
</svg>
