<svg fill="none" height="6" viewBox="0 0 16 6" width="16" xmlns="http://www.w3.org/2000/svg">
    <path
        d="M4.73438 4.41211L5.32031 3.36914L3.73242 2.73047L5.32031 2.09766L4.73438 1.04297L3.375 2.12695L3.61523 0.410156H2.4375L2.67188 2.12695L1.3125 1.04297L0.726562 2.09766L2.32031 2.73047L0.726562 3.36914L1.3125 4.41211L2.66602 3.36328L2.4375 5.05078H3.61523L3.38672 3.36328L4.73438 4.41211ZM9.98125 4.41211L10.5672 3.36914L8.9793 2.73047L10.5672 2.09766L9.98125 1.04297L8.62187 2.12695L8.86211 0.410156H7.68437L7.91875 2.12695L6.55937 1.04297L5.97344 2.09766L7.56719 2.73047L5.97344 3.36914L6.55937 4.41211L7.91289 3.36328L7.68437 5.05078H8.86211L8.63359 3.36328L9.98125 4.41211ZM15.2281 4.41211L15.8141 3.36914L14.2262 2.73047L15.8141 2.09766L15.2281 1.04297L13.8687 2.12695L14.109 0.410156H12.9312L13.1656 2.12695L11.8062 1.04297L11.2203 2.09766L12.8141 2.73047L11.2203 3.36914L11.8062 4.41211L13.1598 3.36328L12.9312 5.05078H14.109L13.8805 3.36328L15.2281 4.41211Z"
        fill="#656565" />
</svg>
