<svg fill="none" height="13" viewBox="0 0 14 13" width="14" xmlns="http://www.w3.org/2000/svg">
    <path clip-rule="evenodd" d="M13.3975 4.79313C13.6991 4.97408 13.898 5.27741 13.9441 5.62715C13.9808 5.91829 14.0001 6.21118 14 6.50002C14 6.78885 13.9807 7.08174 13.9434 7.37232C13.8979 7.72265 13.699 8.02598 13.3968 8.20693C13.0999 8.38441 12.7441 8.41747 12.4186 8.29624L12.4122 8.29393C12.145 8.19361 11.8358 8.33107 11.7122 8.60656C11.5698 8.92207 11.3954 9.22425 11.1918 9.50496C11.0116 9.75434 11.0454 10.0815 11.27 10.2653C11.5383 10.4851 11.6883 10.8093 11.6813 11.155C11.6743 11.5054 11.508 11.829 11.2251 12.0418C10.7596 12.3921 10.2521 12.6839 9.71601 12.9084C9.57076 12.9693 9.41791 13 9.26508 13C9.07376 13 8.88476 12.9524 8.71208 12.8579C8.40818 12.6915 8.20168 12.4009 8.1445 12.0604C8.09611 11.7733 7.8295 11.5825 7.51743 11.6132C7.17675 11.6492 6.82207 11.6492 6.482 11.6132C6.17285 11.5813 5.90335 11.7733 5.85492 12.0604C5.79777 12.4008 5.59127 12.6909 5.28734 12.8579C4.97759 13.0272 4.61242 13.0464 4.28284 12.9084C3.74676 12.6839 3.23926 12.3927 2.77376 12.0418C2.49141 11.8284 2.32458 11.5054 2.31758 11.1545C2.31058 10.8093 2.46051 10.4851 2.72883 10.2659C2.95401 10.0815 2.98784 9.75434 2.80701 9.50496C2.60401 9.22425 2.42958 8.92207 2.28726 8.60656C2.16301 8.33104 1.85501 8.19244 1.58726 8.29393C1.25475 8.4169 0.899503 8.38441 0.602577 8.20693C0.301001 8.02598 0.102075 7.72265 0.0560002 7.37291C0.0192501 7.08465 0 6.79059 0 6.50002C0 6.20944 0.0192501 5.91539 0.0566018 5.62769C0.102102 5.27796 0.301001 4.97406 0.603178 4.79367C0.900679 4.61619 1.25711 4.5843 1.58143 4.70436C1.85618 4.80762 2.16479 4.66956 2.28786 4.39407C2.43019 4.07857 2.60461 3.77638 2.80819 3.49568C2.98844 3.24629 2.95459 2.91917 2.73001 2.73531C2.46111 2.51433 2.31118 2.19069 2.31818 1.84501C2.32518 1.4947 2.49144 1.17164 2.77379 0.958218C3.23929 0.607314 3.74679 0.316167 4.28347 0.0917097C4.6119 -0.0463194 4.97822 -0.0277778 5.28797 0.142169C5.59187 0.308609 5.79837 0.599185 5.85555 0.939649C5.90395 1.22675 6.17405 1.41931 6.48263 1.38682C6.82273 1.35085 7.17738 1.35085 7.51806 1.38682C7.82956 1.41871 8.09671 1.22675 8.14513 0.939649C8.20228 0.599212 8.40878 0.309207 8.71271 0.142169C9.02189 -0.0271796 9.38764 -0.0463194 9.71721 0.0917097C10.2533 0.316167 10.7608 0.607314 11.2263 0.958218C11.5086 1.17166 11.6755 1.4947 11.6825 1.84561C11.6895 2.19072 11.5395 2.51493 11.2712 2.73416C11.046 2.9186 11.0122 3.24572 11.193 3.4951C11.396 3.77581 11.5705 4.078 11.7128 4.3935C11.8365 4.66842 12.1445 4.80705 12.4128 4.70613C12.7447 4.58316 13.1006 4.61508 13.3975 4.79313ZM13.0965 7.70987C13.2446 7.62113 13.3426 7.47092 13.3648 7.29867C13.3992 7.03245 13.4167 6.76392 13.4167 6.49999C13.4167 6.23608 13.3992 5.96756 13.3648 5.70134C13.3426 5.52908 13.2446 5.37887 13.0964 5.29014C12.9529 5.20428 12.7808 5.18862 12.6245 5.24721C12.061 5.4566 11.4299 5.18517 11.1802 4.63068C11.0542 4.35112 10.8996 4.08316 10.7194 3.83377C10.3571 3.33266 10.4347 2.66742 10.9002 2.28694C11.0303 2.1808 11.1026 2.0242 11.0991 1.85716C11.0956 1.68547 11.0139 1.52597 10.8739 1.421C10.4481 1.0997 9.98261 0.832886 9.49086 0.626997C9.32693 0.557996 9.14611 0.566696 8.99386 0.650786C8.84746 0.730825 8.74771 0.871192 8.72028 1.03532C8.62053 1.62925 8.07396 2.02945 7.45678 1.9639C7.15578 1.93258 6.8431 1.93258 6.54328 1.9639C5.9226 2.03002 5.37952 1.62922 5.27977 1.03532C5.25237 0.870621 5.15262 0.730254 5.0062 0.650215C4.85394 0.566696 4.67252 0.557996 4.50977 0.626426C4.01802 0.832315 3.55251 1.0991 3.12669 1.42043C2.98669 1.52599 2.90501 1.6849 2.90151 1.85716C2.89801 2.0242 2.97034 2.1808 3.09984 2.28694C3.56534 2.66742 3.64351 3.33266 3.28126 3.83377C3.10101 4.08259 2.94584 4.35055 2.81984 4.63011C2.57019 5.18517 1.93958 5.45603 1.38251 5.24954C1.21975 5.18865 1.0465 5.20431 0.904179 5.29014C0.75603 5.37887 0.65803 5.52908 0.635854 5.70134C0.600854 5.96525 0.583354 6.23434 0.583354 6.49999C0.583354 6.76564 0.600854 7.03476 0.63528 7.29807C0.657428 7.4709 0.755429 7.62111 0.903605 7.70927C1.04653 7.7957 1.21978 7.81019 1.37553 7.7522C1.93961 7.54341 2.57019 7.81424 2.81986 8.36873C2.94586 8.64829 3.10044 8.91625 3.28069 9.16564C3.64294 9.66675 3.56537 10.332 3.09986 10.7125C2.96976 10.8186 2.89744 10.9752 2.90094 11.1422C2.90444 11.3139 2.98611 11.4734 3.12611 11.5784C3.55194 11.8997 4.01744 12.1665 4.50919 12.3724C4.67252 12.4408 4.85394 12.4321 5.0062 12.3486C5.15259 12.2686 5.25234 12.1282 5.27977 11.9641C5.37952 11.3702 5.9226 10.9653 6.54328 11.0355C6.8437 11.0668 7.15635 11.0668 7.45678 11.0355C7.5011 11.032 7.54543 11.0303 7.5886 11.0303C8.15271 11.0303 8.62753 11.4143 8.72028 11.9658C8.74768 12.13 8.84743 12.2698 8.99386 12.3504C9.14554 12.4333 9.32754 12.4426 9.49029 12.3742C9.98204 12.1688 10.4475 11.9015 10.8734 11.5802C11.0134 11.4746 11.095 11.3157 11.0985 11.1434C11.102 10.9764 11.0297 10.8198 10.9002 10.7136C10.4347 10.3332 10.3565 9.66792 10.7188 9.1668C10.899 8.91799 11.0542 8.64946 11.1802 8.36989C11.4293 7.81658 12.0575 7.54455 12.614 7.74929L12.6175 7.75046C12.7809 7.81136 12.9536 7.7963 13.0965 7.70987Z"
        fill="black"
        fill-rule="evenodd" />
    <path clip-rule="evenodd" d="M4 7.00001C4 5.34581 5.34581 4 7 4C8.65419 4 10 5.34578 10 6.99999C10 8.65419 8.65419 10 7 10C5.34581 10 4 8.65422 4 7.00001ZM4.60002 7.00001C4.60002 8.32361 5.67641 9.40001 7 9.40001C8.32359 9.40001 9.39998 8.32361 9.39998 7.00001C9.39998 5.67642 8.32359 4.60002 7 4.60002C5.67641 4.60002 4.60002 5.67642 4.60002 7.00001Z"
        fill="black"
        fill-rule="evenodd" />
</svg>
