<svg fill="none" height="15" viewBox="0 0 14 15" width="14" xmlns="http://www.w3.org/2000/svg">
    <path clip-rule="evenodd" d="M10.8626 0.730137H13.785C13.9037 0.730137 13.9999 0.828516 14 0.949863V0.949893V6.71558C14 6.83692 13.9038 6.9353 13.7851 6.9353H11.658C11.5393 6.9353 11.4431 6.83692 11.4431 6.71558C11.4431 6.59423 11.5393 6.49585 11.658 6.49585H13.5703V2.06074H10.8627V8.53951C10.8627 8.66086 10.7665 8.75924 10.6478 8.75924H10.1826L10.2434 8.99862C10.4541 9.82936 10.4456 10.7051 10.2188 11.5313L9.62606 13.6899V14.7803C9.62606 14.9016 9.52989 15 9.41119 15H6.83691C6.71822 15 6.62204 14.9016 6.62204 14.7803C6.62204 14.6589 6.71822 14.5605 6.83691 14.5605H9.19632V13.6596C9.19632 13.6396 9.19899 13.6196 9.20432 13.6003L9.80503 11.4125C10.0114 10.6611 10.0191 9.86458 9.82741 9.10904L9.56229 8.06479C9.47494 7.72096 8.97684 7.7226 8.89066 8.06648C8.88284 8.10026 8.88049 8.11049 8.87972 8.15631C8.87485 8.43768 8.45001 8.43296 8.45001 8.15244V7.93597C8.45001 7.68088 8.23368 7.58622 8.0201 7.58622C7.8315 7.58622 7.67811 7.74311 7.67808 7.93594C7.67808 8.21933 7.24835 8.21933 7.24835 7.93594V7.60307C7.24835 7.14381 6.51561 7.13317 6.47728 7.58016C6.47625 7.61561 6.47641 7.74947 6.47647 7.80066V7.8007V7.80077L6.47648 7.80475C6.47696 8.1368 6.04502 8.13765 6.04502 7.80202V5.02424L6.04485 5.02084L6.04493 5.0192C6.04399 4.82745 5.89123 4.67171 5.70349 4.67171C5.51521 4.67171 5.36199 4.82836 5.36199 5.02093V10.9748C5.36199 11.0961 5.26582 11.1945 5.14712 11.1945C5.02843 11.1945 4.93225 11.0961 4.93225 10.9748V9.1224C4.93225 9.08311 4.92392 8.98201 4.84679 8.89195C4.79987 8.8372 4.70466 8.77324 4.59073 8.77324C4.417 8.77324 4.27103 8.9061 4.25123 9.08227L3.96872 11.5837C3.96285 11.636 3.96001 11.6891 3.96039 11.7415C3.96927 12.2363 4.23694 12.5684 4.58167 12.8719L5.2873 13.4931C5.33469 13.5349 5.36196 13.5957 5.36196 13.6596V14.5605H5.80821C5.9269 14.5605 6.02308 14.6589 6.02308 14.7803C6.02308 14.9016 5.9269 15 5.80821 15H5.1471C5.0284 15 4.93223 14.9016 4.93223 14.7803V13.7604L4.21688 13.1307C3.81115 12.7734 3.53065 12.3089 3.53065 11.7449C3.5301 11.6759 3.53386 11.6041 3.54179 11.5334L3.8243 9.03193C3.8353 8.93411 3.86361 8.84227 3.90569 8.75927H3.24994C3.13125 8.75927 3.03507 8.66089 3.03507 8.53954V6.9353H0.214927C0.0962328 6.9353 5.72985e-05 6.83692 5.72985e-05 6.71558L0 0.949893C0 0.830332 0.0977512 0.730137 0.214927 0.730137H3.03504V0.219727C3.03504 0.0983789 3.13122 0 3.24991 0H10.6478C10.7664 0 10.8626 0.0983789 10.8626 0.219727V0.730137ZM3.03507 1.16962H0.429796V1.62129H3.03507V1.16962ZM3.46493 0.439541H10.4328V1.62129H3.46493V0.439541ZM0.429796 2.06074V6.49585H3.03507V2.06074H0.429796ZM10.071 8.31981L9.97816 7.95428C9.84248 7.4204 9.19672 7.1891 8.76292 7.51805C8.52782 7.13437 7.97647 7.02891 7.60655 7.26984C7.41486 6.84829 6.87341 6.69211 6.4747 6.89716V5.24054H8.42933C8.54404 5.24054 8.63735 5.3361 8.63735 5.45355V5.87563C8.63735 5.99291 8.54404 6.08833 8.42933 6.08833H7.25325C7.13455 6.08833 7.03838 6.18671 7.03838 6.30806C7.03838 6.4294 7.13455 6.52778 7.25325 6.52778H8.42933C8.78097 6.52778 9.06709 6.23522 9.06709 5.87563V5.45355C9.06709 5.09379 8.78099 4.80108 8.42933 4.80108H6.44399C6.35065 4.47287 6.0541 4.23223 5.70343 4.23223C5.27817 4.23223 4.9322 4.58604 4.9322 5.0209V8.31979H3.46478V2.06074H10.4329V8.31981H10.071ZM10.8626 1.16962V1.62129H13.5702V1.16962H10.8626Z"
        fill="black"
        fill-rule="evenodd" />
    <path clip-rule="evenodd" d="M4.2021 3H5.7979C5.90954 3 6 3.06818 6 3.15227V3.84773C6 3.93182 5.90954 4 5.7979 4H4.2021C4.09046 4 4 3.93182 4 3.84773V3.15227C4 3.06818 4.09046 3 4.2021 3ZM4.4042 3.69546H5.5958V3.30454H4.4042V3.69546Z"
        fill="black"
        fill-rule="evenodd" />
</svg>
