<svg fill="none" height="18" viewBox="0 0 18 18" width="18" xmlns="http://www.w3.org/2000/svg">
    <path
        d="M3.75342 6.23977C2.8201 6.7731 1.65882 6.09918 1.65882 5.02423V3.44636C1.65882 2.37141 2.8201 1.69749 3.75342 2.23082L5.13405 3.01975C6.07459 3.55721 6.07459 4.91338 5.13405 5.45083L3.75342 6.23977Z"
        stroke="#C5C5C5" stroke-linecap="round" stroke-linejoin="round" stroke-width="1.2" />
    <mask fill="white" id="path-2-inside-1">
        <path clip-rule="evenodd" d="M17.0206 3.78529C17.2691 3.78529 17.4706 3.98676 17.4706 4.23529C17.4706 4.48382 17.2691 4.68529 17.0206 4.68529H9.44999C9.20146 4.68529 8.99999 4.48382 8.99999 4.23529C8.99999 3.98676 9.20146 3.78529 9.44999 3.78529L17.0206 3.78529Z"
            fill-rule="evenodd" />
    </mask>
    <path
        d="M17.0206 3.68529L9.44999 3.68529V5.68529H17.0206V3.68529ZM9.44999 4.78529H17.0206V2.78529L9.44999 2.78529V4.78529ZM9.99999 4.23529C9.99999 4.53905 9.75375 4.78529 9.44999 4.78529V2.78529C8.64918 2.78529 7.99999 3.43448 7.99999 4.23529L9.99999 4.23529ZM9.44999 3.68529C9.75375 3.68529 9.99999 3.93153 9.99999 4.23529L7.99999 4.23529C7.99999 5.0361 8.64918 5.68529 9.44999 5.68529V3.68529ZM16.4706 4.23529C16.4706 3.93153 16.7168 3.68529 17.0206 3.68529V5.68529C17.8214 5.68529 18.4706 5.0361 18.4706 4.23529H16.4706ZM18.4706 4.23529C18.4706 3.43448 17.8214 2.78529 17.0206 2.78529V4.78529C16.7168 4.78529 16.4706 4.53905 16.4706 4.23529H18.4706Z"
        fill="#C5C5C5" mask="url(#path-2-inside-1)" />
    <mask fill="white" id="path-4-inside-2">
        <path clip-rule="evenodd" d="M17.0206 10.1383C17.2691 10.1383 17.4706 10.3397 17.4706 10.5883C17.4706 10.8368 17.2691 11.0383 17.0206 11.0383L0.979404 11.0383C0.730877 11.0383 0.529404 10.8368 0.529404 10.5883C0.529404 10.3397 0.730875 10.1383 0.979404 10.1383L17.0206 10.1383Z"
            fill-rule="evenodd" />
    </mask>
    <path
        d="M17.0206 10.0383L0.979404 10.0383V12.0383L17.0206 12.0383V10.0383ZM0.979404 11.1383L17.0206 11.1383V9.13826L0.979404 9.13826V11.1383ZM1.5294 10.5883C1.5294 10.892 1.28316 11.1383 0.979404 11.1383V9.13826C0.178591 9.13826 -0.470596 9.78744 -0.470596 10.5883H1.5294ZM0.979404 10.0383C1.28316 10.0383 1.5294 10.2845 1.5294 10.5883H-0.470596C-0.470596 11.3891 0.178596 12.0383 0.979404 12.0383V10.0383ZM16.4706 10.5883C16.4706 10.2845 16.7168 10.0383 17.0206 10.0383V12.0383C17.8214 12.0383 18.4706 11.3891 18.4706 10.5883H16.4706ZM18.4706 10.5883C18.4706 9.78744 17.8214 9.13826 17.0206 9.13826V11.1383C16.7168 11.1383 16.4706 10.892 16.4706 10.5883H18.4706Z"
        fill="#C5C5C5" mask="url(#path-4-inside-2)" />
    <mask fill="white" id="path-6-inside-3">
        <path clip-rule="evenodd" d="M17.0206 16.4912C17.2691 16.4912 17.4706 16.6926 17.4706 16.9412C17.4706 17.1897 17.2691 17.3912 17.0206 17.3912H0.979404C0.730877 17.3912 0.529404 17.1897 0.529404 16.9412C0.529404 16.6926 0.730875 16.4912 0.979404 16.4912H17.0206Z"
            fill-rule="evenodd" />
    </mask>
    <path
        d="M17.0206 16.3912H0.979404V18.3912H17.0206V16.3912ZM0.979404 17.4912H17.0206V15.4912L0.979404 15.4912V17.4912ZM1.5294 16.9412C1.5294 17.2449 1.28316 17.4912 0.979404 17.4912V15.4912C0.178591 15.4912 -0.470596 16.1403 -0.470596 16.9412H1.5294ZM0.979404 16.3912C1.28316 16.3912 1.5294 16.6374 1.5294 16.9412H-0.470596C-0.470596 17.742 0.178596 18.3912 0.979404 18.3912V16.3912ZM16.4706 16.9412C16.4706 16.6374 16.7168 16.3912 17.0206 16.3912V18.3912C17.8214 18.3912 18.4706 17.742 18.4706 16.9412H16.4706ZM18.4706 16.9412C18.4706 16.1403 17.8214 15.4912 17.0206 15.4912V17.4912C16.7168 17.4912 16.4706 17.2449 16.4706 16.9412H18.4706Z"
        fill="#C5C5C5" mask="url(#path-6-inside-3)" />
</svg>
