<svg width="22" height="23" viewBox="0 0 22 23" fill="none" xmlns="http://www.w3.org/2000/svg">
<path d="M2.78217 8.71381C1.78264 9.32463 0.5 8.60528 0.5 7.43389V3.56611C0.5 2.39472 1.78265 1.67537 2.78218 2.28619L5.94672 4.22008C6.90382 4.80497 6.90382 6.19503 5.94672 6.77992L2.78217 8.71381Z" stroke="#F7B500" stroke-linecap="round" stroke-linejoin="round"/>
<path fill-rule="evenodd" clip-rule="evenodd" d="M20.1071 5.60714C20.3241 5.60714 20.5 5.78303 20.5 6V6C20.5 6.21697 20.3241 6.39286 20.1071 6.39286L10.8929 6.39286C10.6759 6.39286 10.5 6.21697 10.5 6V6C10.5 5.78303 10.6759 5.60714 10.8929 5.60714L20.1071 5.60714Z" stroke="white"/>
<path fill-rule="evenodd" clip-rule="evenodd" d="M21.1071 13.6071C21.3241 13.6071 21.5 13.783 21.5 14V14C21.5 14.217 21.3241 14.3929 21.1071 14.3929L1.89286 14.3929C1.67589 14.3929 1.5 14.217 1.5 14V14C1.5 13.783 1.67589 13.6071 1.89286 13.6071L21.1071 13.6071Z" stroke="white"/>
<path fill-rule="evenodd" clip-rule="evenodd" d="M21.1071 21.6071C21.3241 21.6071 21.5 21.783 21.5 22V22C21.5 22.217 21.3241 22.3929 21.1071 22.3929H1.89286C1.67589 22.3929 1.5 22.217 1.5 22V22C1.5 21.783 1.67589 21.6071 1.89286 21.6071H21.1071Z" stroke="white"/>
</svg>
