<svg fill="none" height="11" viewBox="0 0 8 11" width="8" xmlns="http://www.w3.org/2000/svg">
    <path
        d="M5.895 3.01449L3.755 1.09422C3.615 0.968594 3.387 0.968594 3.245 1.09422L1.105 3.01449C0.965 3.14011 0.965 3.3447 1.105 3.47212C1.247 3.59774 1.475 3.59774 1.615 3.47032L3.141 2.10281V7.67696C3.141 7.85463 3.303 8 3.501 8C3.699 8 3.861 7.85463 3.861 7.67696V2.10281L5.387 3.47212C5.457 3.53493 5.549 3.56723 5.641 3.56723C5.733 3.56723 5.825 3.53493 5.895 3.47212C6.035 3.34649 6.035 3.1419 5.895 3.01449Z"
        fill="#343339" />
    <path
        d="M7.66038 8C7.47359 8 7.32075 8.10411 7.32075 8.23136V9.53728H0.679245V8.23136C0.679245 8.10411 0.526415 8 0.339623 8C0.15283 8 0 8.10411 0 8.23136V9.76864C0 9.89589 0.150943 10 0.339623 10H7.66038C7.84717 10 8 9.89589 8 9.76864V8.23136C8 8.10411 7.84717 8 7.66038 8Z"
        fill="#343339" />
</svg>
