<svg fill="none" height="9" viewBox="0 0 16 9" width="16" xmlns="http://www.w3.org/2000/svg">
    <path clip-rule="evenodd" d="M1.79649 0H9.20351C10.1952 0.00105753 10.9989 0.757987 11 1.69205V7.30795C10.9989 8.24201 10.1952 8.99894 9.20351 9H1.79649C0.804772 8.99894 0.00112281 8.24201 0 7.30795V1.69205C0.00112281 0.757987 0.804772 0.00105753 1.79649 0ZM9.20351 8.32318C9.7986 8.32252 10.2808 7.86831 10.2814 7.30795V1.69205C10.2808 1.13169 9.7986 0.677482 9.20351 0.676821H1.79649C1.2014 0.677482 0.719298 1.13169 0.718597 1.69205V7.30795C0.719298 7.86831 1.2014 8.32252 1.79649 8.32318H9.20351Z"
        fill="black"
        fill-rule="evenodd" />
    <path clip-rule="evenodd" d="M15.4223 1.04203C15.5407 0.98685 15.6875 0.985904 15.8069 1.03978C15.9263 1.09366 16 1.19385 16 1.30243V7.69755C16 7.81298 15.9168 7.91838 15.7855 7.96918C15.6541 8.01999 15.4977 8.00723 15.3822 7.93645L11.1481 5.34017C11.0546 5.28287 11 5.19461 11 5.10115V3.27711C11 3.17007 11.0715 3.07106 11.1882 3.01659L15.4223 1.04203ZM11.7659 4.95311L15.2341 7.07973V1.83235L11.7659 3.44985V4.95311Z"
        fill="black"
        fill-rule="evenodd" />
</svg>
