<svg fill="none" height="9" viewBox="0 0 12 9" width="12" xmlns="http://www.w3.org/2000/svg">
    <path clip-rule="evenodd" d="M11.7701 3.01823C11.6207 2.887 11.4253 2.79951 11.2069 2.79951H11.2414V1.67315C11.2414 1.21385 11.046 0.798299 10.7241 0.492102C10.4023 0.185905 9.96552 0 9.48276 0H1.75862C1.27586 0 0.83908 0.185905 0.517241 0.492102C0.195402 0.798299 0 1.21385 0 1.67315V7.32685C0 7.78615 0.195402 8.2017 0.517241 8.5079C0.83908 8.8141 1.27586 9 1.75862 9H9.48276C9.96552 9 10.4023 8.8141 10.7241 8.5079C11.046 8.2017 11.2414 7.78615 11.2414 7.32685V6.18955H11.2069C11.4253 6.18955 11.6207 6.10207 11.7701 5.97084C11.908 5.83961 12 5.64277 12 5.43499V3.55407C12 3.34629 11.908 3.16039 11.7701 3.01823ZM10.6092 7.31592C10.6092 7.61118 10.4828 7.87363 10.2759 8.07047C10.069 8.26731 9.7931 8.38761 9.48276 8.38761H1.75862C1.44828 8.38761 1.17241 8.26731 0.965517 8.07047C0.758621 7.87363 0.632184 7.61118 0.632184 7.31592V1.67315C0.632184 1.37789 0.758621 1.11543 0.965517 0.918591C1.17241 0.72175 1.44828 0.601458 1.75862 0.601458H9.48276C9.7931 0.601458 10.069 0.72175 10.2759 0.918591C10.4828 1.11543 10.6092 1.37789 10.6092 1.67315V2.79951H7.04598C6.56322 2.79951 6.13793 2.98542 5.81609 3.28068C5.50575 3.57594 5.31035 3.99149 5.31035 4.45079V4.52734C5.31035 4.98663 5.50575 5.39125 5.81609 5.69745C6.12644 5.99271 6.56322 6.17861 7.04598 6.17861H10.6092V7.31592ZM11.3218 5.54435C11.3448 5.52248 11.3678 5.47874 11.3678 5.43499V3.56501C11.3678 3.52126 11.3563 3.48846 11.3218 3.45565C11.2989 3.43378 11.2529 3.41191 11.2069 3.41191H7.04598C6.74713 3.41191 6.47126 3.52126 6.26437 3.7181C6.06897 3.90401 5.94253 4.16646 5.94253 4.46173V4.53827C5.94253 4.8226 6.06897 5.09599 6.26437 5.2819C6.45977 5.4678 6.74713 5.58809 7.04598 5.58809H11.2069C11.2529 5.58809 11.2874 5.57716 11.3218 5.54435Z"
        fill="#7E8890"
        fill-rule="evenodd" />
</svg>
